<svg xmlns="http://www.w3.org/2000/svg" xmlns:xlink="http://www.w3.org/1999/xlink" version="1.1" x="0px" y="0px" viewBox="0 0 100 125" enable-background="new 0 0 100 100" xml:space="preserve"><g><path fill="#000000" d="M74.493,78.351H17.575V57.245l8.984-2.36l-16.244-2.368l12.346-4.902L4.954,44.371l15.619-6.755V21.649   h56.918V39.66l-8.182,2.898l17.895,4.211L76.458,50.7L95,52.825l-20.507,6.666V78.351z M20.573,75.353h50.923v-18.04l9.47-3.08   l-17.431-1.997l13.236-4.843l-18.078-4.252l15.801-5.6V24.647H23.571v14.939l-8.362,3.617l18.264,3.345l-11.635,4.621l19.728,2.875   l-20.993,5.515V75.353z"/></g><text x="0" y="115" fill="#000000" font-size="5px" font-weight="bold" font-family="'Helvetica Neue', Helvetica, Arial-Unicode, Arial, Sans-serif">Created by Cezary Rudaś</text><text x="0" y="120" fill="#000000" font-size="5px" font-weight="bold" font-family="'Helvetica Neue', Helvetica, Arial-Unicode, Arial, Sans-serif">from the Noun Project</text></svg>